<?xml version="1.0" encoding="utf-8"?>
<!-- Generator: Adobe Illustrator 20.1.0, SVG Export Plug-In . SVG Version: 6.00 Build 0)  -->
<!DOCTYPE svg PUBLIC "-//W3C//DTD SVG 1.1//EN" "http://www.w3.org/Graphics/SVG/1.1/DTD/svg11.dtd">
<svg version="1.1" xmlns="http://www.w3.org/2000/svg" xmlns:xlink="http://www.w3.org/1999/xlink" x="0px" y="0px" width="255.5px"
	 height="322.2px" viewBox="0 0 255.5 322.2" enable-background="new 0 0 255.5 322.2" xml:space="preserve">
<g id="Body">
	<ellipse fill="#231C34" cx="159.2" cy="306.8" rx="96.3" ry="15.3"/>
	<path fill="#F7EBC5" d="M202.7,308.5c-79.4,17-139.4,3.1-139.4,3.1C44.5,265,47.7,217,49.9,198.9c0.2-1.9,0.4-3.4,0.6-4.6h0
		c0-0.2,0-0.3,0.1-0.5h0c0.2-1.5,0.4-2.4,0.4-2.4l8.4-0.2c0.1,0,0.3,0,0.4,0l2.6-0.1l6.6-0.1h0.1l20.4-0.4l11.5-0.2l7.6-0.2
		l15.8-0.3h0l8.9-0.2l20.8-0.4l1.1,0l20.3-0.4l12.2-0.2l5-0.1l2.5,0l6.5-0.1l0.9,0c0,0.1,0.1,0.2,0.1,0.2c0,0.2,0.1,0.3,0.1,0.5
		c0.5,1.5,1,3,1.4,4.5C216.8,237.3,202.7,308.5,202.7,308.5z"/>
	<path fill="#F3E4B2" d="M62.5,191.1c0,0-3.3,62.1,12.9,121.8l6.2,0.8c0,0-16.2-66.8-11.5-122.7L62.5,191.1z"/>
	<path fill="#F3E4B2" d="M81.9,190.8c0,0-2.9,64.8,13.3,124.7l5.9,0.4c0,0-16.4-69.2-11.7-125.2L81.9,190.8z"/>
	<path fill="#F3E4B2" d="M101.1,190.4c0,0-3.5,66.2,12.8,126.1l6.8,0.1c0,0-16.7-70.2-12-126.3L101.1,190.4z"/>
	<path fill="#F3E4B2" d="M195.3,188.5c0,0,9.5,60.2-0.8,121.3l-6,1.1c0,0,9.5-66.9-0.7-122.3L195.3,188.5z"/>
	<path fill="#F3E4B2" d="M175.6,188.9c0,0,9.5,62.9-0.8,124.1l-6,0.8c0,0,9.4-69.3-0.8-124.7L175.6,188.9z"/>
	<path fill="#F3E4B2" d="M155.3,189.3c0,0,9.3,64.8-1,126l-5.8,0.4c0,0,9.5-70.9-0.7-126.3L155.3,189.3z"/>
	<path fill="#F3E4B2" d="M124.4,189.9c0,0,3.1,82,6.5,126.6l7.3-0.2l-4.8-127L124.4,189.9z"/>
	<path fill="#DBC79D" d="M202.2,188.2l-9,0.2c11.5,44-2.3,112.8-2.3,112.8c-61.3,13-107.5,13-127.2,9.9c0,0-0.8-1.9,0,0
		c0,0,58.8,14.3,138.5-2.7C202.2,308.4,217.6,231.3,202.2,188.2z"/>
	<path fill="#DBC79D" d="M0.3,225.4c-0.1-0.1-0.1-0.1-0.2-0.2c0,0-0.1,0-0.1,0C0.1,225.3,0.2,225.3,0.3,225.4z"/>
	<path fill="#DBC79D" d="M216.3,186c-0.3,3.6-3.6,4.1-5.3,4.1c-0.6,0-1.3-0.1-1.8-0.4c-2.8-1.3-5.2-1.2-6.8-0.7c0.5,1.5,1,3,1.4,4.5
		c-0.2,0-0.4,0.1-0.5,0.2c-0.1,0-0.2,0.1-0.3,0.1c-0.5,0.2-1,0.5-1.2,0.7c-0.2,0.2-0.5,0.3-0.8,0.4c-1.3,0.5-2.7,1-4,1.4
		c-0.4,0.1-0.7,0.2-1.1,0.3c-0.3,0.1-0.7,0.2-1,0.3c-0.3,0.1-0.5,0.1-0.8,0.2c-1.5,0.4-2.9,0.7-4.2,0.9c-0.3,0.1-0.7,0.1-1,0.2
		c-2.5,0.4-4.4,0.5-5.2,0.6c-0.3,0-0.6,0.1-0.9,0.2c-1.4,0.4-3.2,0.5-5.1,0.5c-0.4,0-0.8,0-1.2,0c-2.1-0.1-4.3-0.4-6.2-0.7
		c-0.4-0.1-0.7-0.1-1-0.2c-2.6-0.5-4.6-0.9-5.1-1c-0.1,0-0.2,0-0.3-0.1c-2.4-0.4-4.6-0.6-6.7-0.6c-0.4,0-0.8,0-1.2,0
		c-2.2,0.1-4.2,0.4-6,0.8c-0.3,0.1-0.7,0.1-1,0.2c-4.8,1.2-7.6,2.9-7.6,2.9c-2,1.2-4.1,1.9-6.2,2.4c-0.5,0.1-1,0.2-1.5,0.3
		c-2.7,0.4-5.3,0.4-7.4,0.2c-0.5,0-1-0.1-1.5-0.2c-1.4-0.2-2.5-0.4-3.1-0.5c-0.3-0.1-0.5-0.2-0.8-0.3c-3.9-1.8-8.7-2.4-11-2.6
		c-0.8-0.1-1.3-0.1-1.3-0.1c-0.2,0-0.4,0-0.6,0h0c-1.8-0.1-3.6,0-5.5,0.2c-0.6,0.1-1.2,0.1-1.8,0.2c-4,0.5-7.4,1.4-8,1.6
		c-0.1,0-0.1,0-0.2,0c-0.6,0.1-1.2,0.2-1.8,0.4c-0.6,0.1-1.3,0.2-1.9,0.3c-1.9,0.2-3.7,0.3-5.4,0.3c-0.6,0-1.2,0-1.7-0.1
		c-4.8-0.3-8.2-1.6-10.2-2.6c-1-0.5-1.6-0.9-1.9-1.1c-0.1-0.1-0.1-0.1-0.1-0.1c-1.9-1.4-3.7-2.1-5.3-2.5c-0.6-0.2-1.3-0.3-1.8-0.3
		c-2.8-0.2-4.5,0.8-4.5,0.8c-1.6,0.9-3.6,1.5-5.5,1.7h0c-0.8,0.1-1.5,0.2-2.3,0.2c0.2-1.9,0.4-3.4,0.6-4.6c-3.9,0.6-7.6,0.2-7.6,0.2
		c-1.6,0-2.8-0.3-3.6-0.7c0-0.2,0.1-0.3,0.2-0.5c0.8,0.4,2,0.7,3.5,0.7c0,0,3.7,0.4,7.6-0.2h0c2-0.3,4-0.8,5.5-1.7
		c0,0,1.2-0.7,3.2-0.8c0.1,0,0.3,0,0.4,0c0.8,0,1.6,0.1,2.6,0.3c0,0,0,0,0,0c1.5,0.4,3.3,1.2,5.3,2.5c0,0,0.7,0.5,2,1.1c0,0,0,0,0,0
		c2.2,1.1,6.2,2.6,11.9,2.7h0.1c2.2,0,4.6-0.1,7.2-0.6c0,0,0,0,0,0c0.6-0.1,1.2-0.2,1.8-0.4c0.1,0,0.1,0,0.2,0
		c0.7-0.2,5-1.3,9.7-1.8c0,0,0,0,0.1,0c2-0.2,4.1-0.3,6.1-0.1c0,0,0.5,0,1.2,0.1h0c2.3,0.2,7.2,0.8,11,2.7c0.2,0.1,0.5,0.2,0.8,0.3
		c0.7,0.2,2.4,0.5,4.5,0.7c0,0,0.1,0,0.1,0c2.5,0.2,5.6,0.2,8.8-0.5c0,0,0.1,0,0.1,0c2.1-0.5,4.2-1.2,6.2-2.4c0,0,3.2-2,8.4-3.1
		c0,0,0.1,0,0.1,0c2-0.4,4.4-0.8,7-0.8h0.1c2.1,0,4.3,0.1,6.7,0.6c0.1,0,0.2,0,0.3,0.1c0.6,0.1,3,0.7,6,1.2c0,0,0.1,0,0.1,0
		c2.3,0.4,4.9,0.7,7.3,0.7h0.1c1.9,0,3.7-0.1,5.1-0.5c0.3-0.1,0.6-0.1,0.9-0.2c0.9-0.1,3.1-0.2,6.1-0.7l0.1,0
		c1.5-0.3,3.1-0.6,4.8-1.1c0.1,0,0.1,0,0.2,0c0.6-0.2,1.3-0.4,1.9-0.6c0,0,0.1,0,0.1,0c1.3-0.4,2.6-0.9,4-1.4
		c0.3-0.1,0.6-0.3,0.8-0.4c0.3-0.2,0.7-0.5,1.3-0.7c0.1,0,0.1-0.1,0.2-0.1c0.2-0.1,0.4-0.2,0.6-0.2c0.1,0,0.1,0,0.2-0.1
		c1.7-0.5,4-0.7,6.8,0.7c0.6,0.3,1.2,0.4,1.8,0.4C212.7,189.6,215.8,189.1,216.3,186z"/>
	<path fill="#6B3F23" d="M217.1,186C217.1,186,217.1,186,217.1,186c-0.3,3.6-3.6,4.1-5.4,4.1c-0.6,0-1.3-0.1-1.8-0.4
		c-2.8-1.3-5.2-1.2-6.9-0.7c-0.3,0.1-0.6,0.2-0.8,0.3c-0.7,0.3-1.2,0.6-1.5,0.8c-0.2,0.2-0.5,0.3-0.8,0.4c-1.3,0.6-2.7,1-4,1.4
		c-0.7,0.2-1.4,0.4-2.1,0.6c-1.8,0.5-3.5,0.9-5,1.1c-3,0.5-5.3,0.7-6.2,0.8c-0.3,0-0.6,0.1-0.9,0.2c-1.4,0.4-3.2,0.5-5.1,0.5
		c-2.5-0.1-5.1-0.4-7.5-0.7c-3.1-0.5-5.6-1.1-6.2-1.2c-0.1,0-0.2,0-0.3-0.1c-2.4-0.4-4.6-0.6-6.7-0.6c-2.7,0-5.1,0.3-7.2,0.8
		c-5.4,1.1-8.6,3.2-8.6,3.2c-2,1.2-4.1,1.9-6.2,2.4c-3.2,0.7-6.4,0.7-8.9,0.5c-2.2-0.2-3.9-0.5-4.7-0.7c-0.3-0.1-0.5-0.2-0.8-0.3
		c-3.9-1.8-8.8-2.5-11.1-2.7c-0.8-0.1-1.3-0.1-1.3-0.1c-2-0.2-4.1-0.1-6.1,0.1c-4.8,0.5-9.1,1.6-9.8,1.8c-0.1,0-0.2,0-0.2,0
		c-0.6,0.1-1.2,0.2-1.8,0.4c-2.7,0.5-5.1,0.6-7.3,0.6c-5.7-0.1-9.8-1.6-12-2.7c-1.3-0.7-2-1.2-2-1.2c-2-1.4-3.8-2.1-5.3-2.5
		c-3.9-1-6.3,0.5-6.3,0.5c-1.6,0.9-3.6,1.5-5.6,1.7h0c-3.9,0.6-7.7,0.2-7.7,0.2c-1.7,0-2.8-0.3-3.7-0.7c-1.1-0.6-1.6-1.5-1.8-2.4
		c-0.3-1.4,0.3-3,1.4-3.9c3.4-2.8,4.3-8.5,4.3-8.5c0.6-2.9,3.4-5,6.4-6.3c3.2-1.5,6.7-2.2,8-2.4c0.2,0,0.3-0.1,0.5-0.1
		c0.2-0.1,0.4-0.1,0.6-0.2c5.5-2.6,14.6-4.3,25.7-5.3c20.6-1.8,48.1-1.2,71.9-0.1c22.6,1.1,41.9,2.8,49.1,3.4c1.9,0.2,3,0.3,3,0.3
		c3-0.2,4.8,1.2,5.8,3v0c1.4,2.4,1.5,5.7,1.4,7.4c0,0.6,0.1,1.3,0.3,1.8C216.9,182.8,217.2,184.6,217.1,186z"/>
	<path fill="#512C1D" d="M214.1,171.2L214.1,171.2c-8.3-1-25.6,5-62.3,10.7c-20.8,3.2-42.1,4.1-63.1,2.1c-10-0.9-20.2-2.1-28.7-5
		c-13.6-4.6-10.5-6-10.5-6c0-0.2,0-0.3,0-0.4c3.2-1.5,6.7-2.2,8-2.4c0.2,0,0.3-0.1,0.5-0.1c-1.7-1.2-3.1-2.5-4.2-3.7
		c0.3-0.3,0.7-0.5,1-0.8c3.8-3.4,8.7-4.4,12.5-4.7c3.2-0.2,6.5,0.4,9.5,1.5c2.4,0.8,4.9,1.6,7.5,2.2c5.1,1.3,10.6,2.2,16.1,2.8
		c17.3,1.9,34.8,1.1,52-2.1c1.3-0.2,2.6-0.5,3.8-0.7c51.2-9.3,53.9-1.8,53.9-1.8c0.3,0.3,0.6,0.6,0.9,0.8c-1.3,1.8-3.3,3.2-5.6,4.4
		c1.9,0.2,3,0.3,3,0.3C211.3,168,213.1,169.4,214.1,171.2z"/>
	<path fill="#FBB5C3" d="M213.1,157.3c-0.3,0.9-0.5,1.9-0.7,2.8c-0.2,1.2-0.8,2.4-1.5,3.4c-1.3,1.8-3.3,3.2-5.6,4.4
		c-4.9,2.5-11.3,3.7-15.4,4.2c-3.4,0.5-6.8,1-10.2,1.6c-42.4,7.9-81.8,5.5-81.8,5.5c-20.8,0.2-32.9-4.2-39.9-9.2
		c-1.7-1.2-3.1-2.5-4.2-3.7c-0.2-0.2-0.4-0.4-0.6-0.6c-5.9-6.8-5.7-17.2,1-23.1c3.8-3.4,8.7-4.4,12.5-4.7c3.2-0.2,6.5,0.4,9.5,1.5
		c7,2.5,15.4,4.1,23.6,5c17.3,1.9,34.8,1.1,52-2.1c54.9-10.4,57.7-2.5,57.7-2.5C215.8,145.7,214.1,154,213.1,157.3z"/>
	<path fill="#FBB5C3" d="M210,142.9c-1.1,0.8-2.4,1.5-3.8,2.1c-5.1,2.2-11.5,3-15.6,3.4c-3.4,0.3-6.9,0.6-10.3,1
		c-42.8,5.5-82,0.8-82,0.8c-19.1-0.9-30.6-5.2-37.6-10.2c1.7-0.4,3.4-0.7,4.9-0.8c3.2-0.2,6.5,0.4,9.5,1.5c7,2.5,15.4,4.1,23.6,5
		c17.3,1.9,34.8,1.1,52-2.1c54.9-10.4,57.7-2.5,57.7-2.5C209.1,141.7,209.6,142.3,210,142.9z"/>
	<path fill="#FF8F9F" d="M209.2,139.7c0,0-1.3-1.1-4.9-1.8c4.3,5.6,4.8,13.1,3.9,16.1c-0.3,0.9-0.5,1.9-0.7,2.8
		c-0.2,1.2-0.8,2.4-1.5,3.4c-1.3,1.8-3.3,3.2-5.5,4.4c-4.9,2.5-11.1,3.7-15.1,4.2c-3.4,0.5-6.7,1-10,1.6
		c-41.8,7.8-80.7,5.5-80.7,5.5c-18.1,0.1-30.2-2.4-37.4-6.7c0.7,0.6,1.5,1.3,2.4,1.9c6.9,5,19.5,8.9,40,8.7c0,0,38.9,2,80.7-5.8
		c3.3-0.6,6.7-1.2,10-1.6c4-0.5,10.3-1.7,15.1-4.2c2.3-1.2,4.2-2.6,5.5-4.4c0.7-1,1.3-2.1,1.5-3.4c0.2-0.9,0.4-1.9,0.7-2.8
		C214.2,154.2,215.8,145.3,209.2,139.7z"/>
	<path fill="#FF8F9F" d="M207.6,140.2c-1.1,1.1-2.4,1.9-3.7,2.7c-5,2.8-11.4,3.9-15.5,4.3c-3.4,0.3-6.8,0.8-10.2,1.3
		c-42.6,6.9-79.8,3.9-79.8,3.9c-19-1.2-30.5-6.7-37.4-12.9c1.7-0.6,3.4-0.8,4.9-1c3.2-0.2,6.4,0.5,9.5,1.9c7,3.2,15.3,5.2,23.5,6.4
		c17.3,2.5,34.7,1.4,51.8-2.7c54.7-13.3,57.6-3.8,57.6-3.8C208.6,140.9,207.2,139.4,207.6,140.2z"/>
	<path fill="#F9CED7" d="M109.6,116.1c-9.4-0.7-18.7-2.6-27.6-5.7c-5.8-2.1-14.1-3.5-19.1,1.7c0,0-9.2,8.7-4,19.6
		c1.9,4,5.4,7.1,9.5,8.8c13.7,5.7,58.3,19.9,128.2-2.7c2.9-0.9,5.5-2.6,7.3-4.9c3-3.7,5.1-10.1-1.3-19.4c0,0-6.1-12.9-32.3-3.6
		C170.4,109.9,147.8,119.1,109.6,116.1z"/>
	<path fill="#FFBCCB" d="M198.7,109.6c-0.6,0.9-1.1,2.1-1.7,2.8c-2.1,2.2-9.8,2.8-12.8,3.5c-64.3,14.4-99.8,1.9-117.1-6.4
		c4.6-1.6,9.9-0.6,14.1,0.9c8.9,3.3,18.2,5.2,27.6,6c38.2,3.1,60.8-6.5,60.8-6.5C184.6,104.5,194.6,106.6,198.7,109.6z"/>
	<path fill="#FFBCCB" d="M202.7,113.8c0,0-1.4-3-5.7-5c2.7,7.3,4.2,15.5,1.2,19.2c-1.9,2.3-4.5,4-7.3,4.9
		c-69.6,22.5-114.2,8.4-127.8,2.7c-0.7-0.3-1.4-0.7-2.1-1.1c2,2.7,4.8,4.9,7.9,6.2c13.6,5.7,58.1,19.8,127.8-2.7
		c2.8-0.9,5.5-2.6,7.3-4.9C207,129.4,209.1,123,202.7,113.8z"/>
	<path fill="#F9DADF" d="M76.3,102.2c0,0-1.4,3.3-1.3,6.5c0,0,38.8,15.1,77.8,5.7l36.2-9c2.9-0.7,5.5-2.1,7.5-4.3
		c2.5-2.7,4.4-6.9,0.7-12.1c0,0-3.5-6.2-14.1-8.7c-2.9-0.7-5-3.2-5-6.1c0-0.8,0.1-1.8,0.4-2.9c0,0,3.6-17.2-25.7-21.1
		c0,0-23.1-3.9-17.5,17.7c0,0,5.1-8.7,11.6-5.7c0,0,7.7,3.1-2.6,11.8c0,0-6.7,6.9-18.8,8.5L76.3,102.2z"/>
	<path fill="#FFC6D2" d="M195.6,88.6c0,0-3.2-6-12.6-8.5c-2.6-0.7-4.5-3.1-4.5-5.9c0-0.8,0.1-1.8,0.3-2.8c0,0,3.1-16.3-21.5-20.4
		c-0.7-0.1-1.5-0.3-2.2-0.4c-3.4-0.7-16.1-2.6-20,6.5c4.8-3.7,17.2-2.2,17.2-2.2c26.1,3.7,22.7,24.5,22.7,24.5c-0.2,1-0.3,2-0.3,2.8
		c0,2.9,1.9,5.3,4.5,5.9c9.4,2.5,12.6,8.5,12.6,8.5c1.2,1.8,1.8,3.5,1.9,5.1c0.5-0.4,0.9-0.9,1.4-1.4
		C197.3,97.7,199,93.6,195.6,88.6z"/>
	<path fill="#FFC6D2" d="M197.2,89.2c0,0-2.3-4.1-8.9-7.1c2.4,2,3.4,3.7,3.4,3.7c3.7,5.2,1.9,9.4-0.7,12.2c-2,2.2-4.6,3.6-7.5,4.3
		l-36.1,9c-30,7.3-59.9-0.1-71.9-3.9c0,0.5-0.1,1-0.1,1.5c0,0,38.6,15.2,77.4,5.8l36.1-9c2.8-0.7,5.5-2.2,7.5-4.3
		C199,98.6,200.9,94.4,197.2,89.2z"/>
	<path fill="#603913" d="M93.4,62.1c0,0,12.1-27.2-7.2-50c0,0-16.4-20.7-37.5-2.7c-2.3,2-4.1,4.5-5.5,7.2
		c-3.8,7.4-9.1,23.7,10.6,33.3c0,0-4.1,2.8-10.2,3.2c0,0-21.4-18.7,0.8-43c3.6-4,8.1-7.1,13.3-8.7c5.7-1.8,13.5-2.5,21.8,2.2
		c0,0,28.1,16.9,17.9,56.9L93.4,62.1z"/>
	<path fill="#BE1E2D" d="M89.9,65.3c0,0-18.1-5.1-23.7,10.5c0,0-4.5,14.1,7.3,24.3c0,0,5.3,5.8,18.1,6.4c0,0,2.3-4.5,14.3-4.1
		c0,0,4.7-5.6,12.2-6.4c0,0,0.6-2.8,6.4-3.6c0,0,5.3-27.1-9.8-33.3C114.6,59.1,100.5,52.9,89.9,65.3z"/>
	<path fill="#98252B" d="M114.5,59.3c0,0-7-3.1-14.8-0.5c0.9,0.3,1.4,0.5,1.4,0.5c14.9,6.2,9.7,33.1,9.7,33.1
		c-5.7,0.8-6.3,3.6-6.3,3.6c-7.4,0.8-12,6.4-12,6.4c-5.9-0.2-9.5,0.8-11.5,1.9c2.7,1,6.3,1.9,10.8,2.2c0,0,2.3-4.5,14.1-4
		c0,0,4.6-5.5,12-6.4c0,0,0.6-2.8,6.3-3.6C124.1,92.5,129.4,65.5,114.5,59.3z"/>
	<path fill="#FFFFFF" d="M86.3,72.9l-5.2-1c0,0-8.8,6.3-4.4,16h5.9C82.7,87.9,76.8,80.1,86.3,72.9z"/>
</g>
<g id="Mouth">
	<path d="M137.6,263.4c-1.4,0.1-2.7,0.6-4,1.3c-2.6,1.5-9.6,4.2-18.1-2.6c0,0-6.5-5.6-13.1,0.4c0,0-6.4,5.7,2.3,12.5
		c0,0,5.9,5.5,19.8,6.3c4.4,0.2,8.8-0.4,12.8-2.1c2.3-1,4.6-2.4,6.2-4.3c3.8-4.7,0.4-11.9-5.7-11.5
		C137.7,263.4,137.6,263.4,137.6,263.4z"/>
	<path fill="#DBC79D" d="M144.8,268.4c0.6,2.1,0.3,4.4-1.3,6.4c-1.6,1.9-3.9,3.3-6.2,4.3c-4,1.7-8.4,2.4-12.8,2.1
		c-13.9-0.7-19.8-6.3-19.8-6.3c-1.3-1-2.2-2-2.9-2.9c0.5,1.7,1.8,3.6,4.3,5.6c0,0,5.9,5.5,19.8,6.3c4.4,0.2,8.8-0.4,12.8-2.1
		c2.3-1,4.6-2.4,6.2-4.3C147.2,274.6,146.8,270.9,144.8,268.4z"/>
	<path fill="#FFFFFF" d="M128.2,267.9c0,0,4.1-0.2,6.1-1.5c0,0,0.7,9.4-5.5,9.4c0,0-2.1-0.1-1.2-2.8
		C127.6,273,128.2,270.8,128.2,267.9z"/>
</g>
<g id="Eyes">
	<path d="M169.8,221.3c-1,1.7-4.5,6.8-11.2,8.1c0,3.2-1.6,6.1-4,7.8c3.4,0.6,6,3.7,6,3.7c0,0,0,0.1,0.1,0.1c0.3,0.6-0.4,1-0.4,1
		c-1,0.4-1.6-0.1-1.6-0.1c-3.6-3.8-7.2-1.9-7.2-1.9c-1.3,0.7-1.4,2.1-1.3,3c0.1,1.2-1.4,1.9-2.1,1c0,0,0,0,0,0c-0.9-2.5,0.2-4.2,1-5
		c-5.2-0.1-9.4-4.3-9.4-9.5c0-5.2,4.2-9.5,9.5-9.5c1.8,0,3.5,0.5,5,1.4h0c0.6,0.2,6.4,1.6,9.7-3.3c0,0,0,0,0,0c1.3-1,3,0.6,2,2
		c-0.4,0.7-1.1,1.4-1.8,1.7c0,0,2.3,0.1,4.4-2.1c0,0,0.4,0.1,0.9,0.3C169.8,220.1,170.1,220.8,169.8,221.3z"/>
	<path fill="#DBC79D" d="M171.3,219.8c-0.4-0.2-0.9-0.3-0.9-0.3c-0.2,0.2-0.5,0.5-0.7,0.6c0.2,0.3,0.3,0.7,0.1,1.1
		c-1,1.7-4.5,6.8-11.2,8.1c0,3.2-1.6,6.1-4,7.8c3.4,0.6,6,3.7,6,3.7c0,0,0,0.1,0.1,0.1c0.2,0.3,0.1,0.6-0.1,0.7
		c0.1,0.1,0.1,0.1,0.2,0.1c0,0,0.5,0.5,1.6,0.1c0,0,0.7-0.4,0.4-1c0,0,0-0.1-0.1-0.1c0,0-2.5-3.1-6-3.7c2.5-1.7,4-4.6,4-7.8
		c6.8-1.3,10.2-6.4,11.2-8.1C172.1,220.8,171.9,220.1,171.3,219.8z"/>
	<path d="M116.8,228.6c0,5.2-4.2,9.5-9.5,9.5c-0.6,0-1.2-0.1-1.8-0.2c0.8,0.9,1.6,2.5,0.8,4.8c0,0,0,0,0,0c-0.8,1-2.3,0.2-2.2-1
		c0.1-0.9,0-2.3-1.3-3c0,0-3.6-1.9-7.2,1.9c0,0-0.5,0.5-1.6,0.1c0,0-0.6-0.4-0.3-1c0,0,0-0.1,0.1-0.1c0,0,3.3-4,7.5-3.8
		c-2.1-1.7-3.5-4.4-3.5-7.4c0-0.1,0-0.2,0-0.3c-5.9-1.6-9.1-6.2-10-7.8c-0.3-0.5-0.1-1.2,0.5-1.5c0.4-0.2,0.9-0.3,0.9-0.3
		c2.1,2.2,4.4,2.1,4.4,2.1c-0.7-0.3-1.3-1-1.8-1.7c-0.9-1.3,0.8-2.9,2-2c0,0,0,0,0,0c2.3,3.5,5.9,3.8,8,3.6c1.5-1.1,3.4-1.7,5.4-1.7
		C112.5,219.1,116.8,223.3,116.8,228.6z"/>
	<path fill="#DBC79D" d="M113.6,221.5c1.9,1.7,3.1,4.2,3.1,7c0,5.2-4.2,9.5-9.5,9.5c-0.6,0-1.2-0.1-1.8-0.2c0.8,0.9,1.6,2.5,0.8,4.8
		c0,0,0,0,0,0c-0.1,0.2-0.3,0.3-0.4,0.3c-0.1,1.2,1.4,1.8,2.1,0.9c0,0,0,0,0,0c0.8-2.4-0.1-4-0.8-4.8c0.6,0.1,1.2,0.2,1.8,0.2
		c5.2,0,9.5-4.2,9.5-9.5C118.5,226.2,116.5,223.1,113.6,221.5z"/>
	<circle fill="#FFFFFF" cx="110.6" cy="230" r="2.5"/>
	<circle fill="#FFFFFF" cx="151.1" cy="230.8" r="2.5"/>
</g>
</svg>
